<?xml version="1.0" encoding="UTF-8" standalone="no"?><!DOCTYPE svg PUBLIC "-//W3C//DTD SVG 1.1//EN" "http://www.w3.org/Graphics/SVG/1.1/DTD/svg11.dtd"><svg width="100%" height="100%" viewBox="0 0 10417 10417" version="1.1" xmlns="http://www.w3.org/2000/svg" xmlns:xlink="http://www.w3.org/1999/xlink" xml:space="preserve" xmlns:serif="http://www.serif.com/" style="fill-rule:evenodd;clip-rule:evenodd;stroke-linecap:round;stroke-linejoin:round;stroke-miterlimit:1.5;"><g transform="matrix(4.16667,0,0,4.16667,0,0)"><g transform="matrix(1.28259,0,0,1.28259,-353.242,-352.993)"><path d="M1087.34,660.757L729.733,660.757C657.7,660.757 598.769,719.688 598.769,791.717C598.769,863.75 653.353,922.682 725.386,922.682L1090.4,922.682L1087.34,660.753L1087.34,660.757Z" style="fill:#073042;fill-rule:nonzero;"/><path d="M1901.37,1827.39L729.599,1827.39C657.567,1827.39 598.635,1768.46 598.635,1696.43L598.635,791.317C598.635,791.317 598.242,922.689 738.194,922.689L1710.04,922.689C1710.04,922.689 1901.37,906.22 1901.37,1048.92L1901.37,1827.39Z" style="fill:#4285f4;fill-rule:nonzero;"/><g><rect x="1009.82" y="725.082" width="501.354" height="91.799" style="fill:#fff;fill-rule:nonzero;"/><path d="M1438.45,806.113C1419.65,806.113 1404.36,790.809 1404.36,772.003C1404.36,753.197 1419.65,737.904 1438.45,737.904C1457.26,737.904 1472.55,753.201 1472.55,772.003C1472.55,790.809 1457.26,806.113 1438.45,806.113M1061.54,806.113C1042.74,806.113 1027.44,790.809 1027.44,772.003C1027.44,753.197 1042.74,737.904 1061.54,737.904C1080.35,737.904 1095.64,753.201 1095.64,772.003C1095.64,790.809 1080.35,806.113 1061.54,806.113M1450.69,600.705L1518.84,482.671C1522.72,475.933 1520.38,467.198 1513.65,463.305C1506.91,459.428 1498.17,461.77 1494.28,468.498L1425.27,588.019C1372.5,563.935 1313.24,550.519 1250,550.519C1186.76,550.519 1127.49,563.935 1074.73,588.019L1005.72,468.49C1001.83,461.76 993.089,459.418 986.35,463.297C979.615,467.187 977.271,475.929 981.157,482.667L1049.31,600.701C932.289,664.351 852.244,782.826 840.538,922.797L1659.46,922.797C1647.74,782.826 1567.7,664.351 1450.69,600.701" style="fill:#3ddc84;fill-rule:nonzero;"/><g transform="matrix(1.17336,0,0,1.17336,-299.181,-264.973)"><g transform="matrix(1,0,0,1,-7.05653,0)"><clipPath id="_clip1"><rect x="874.074" y="1040.16" width="842.598" height="743.068"/></clipPath><g clip-path="url(#_clip1)"><g transform="matrix(3.18548,0,0,3.18548,227.622,719.305)"><path d="M434.468,252.101C442.036,263.173 446.272,275.312 446.272,300C446.272,342.182 412.077,376.377 369.895,376.377L265.435,376.377C258.047,376.377 252.057,370.388 252.057,363L252.057,273.681L278.812,273.681C278.812,273.681 278.812,349.623 278.812,349.623L369.895,349.623C397.301,349.623 419.518,327.406 419.518,300C419.518,286.575 417.908,278.41 414.759,271.784C403.052,279.671 389.174,283.973 374.853,283.973L328.481,283.973C321.093,283.973 315.104,277.984 315.104,270.596L315.104,226.978C315.104,219.59 321.093,213.6 328.481,213.6L364.895,213.6C383.392,213.6 401.239,219.898 415.571,231.305C418.148,225.804 419.518,219.651 419.518,212.554C419.518,201.888 413.813,184.418 403.659,174.263C393.504,164.109 379.732,158.404 365.371,158.404C365.353,158.404 278.812,158.404 278.812,158.404L278.812,220.432L252.057,220.432L252.057,145.027C252.057,137.639 258.047,131.65 265.435,131.65L365.371,131.65C386.827,131.65 407.405,140.173 422.577,155.345C437.748,170.517 446.272,196.619 446.272,212.554C446.272,228.198 442.11,240.972 434.468,252.101ZM397.423,251.096C388.07,244.162 376.679,240.355 364.895,240.355C364.895,240.355 341.859,240.355 341.859,240.355C341.859,240.355 341.859,257.218 341.859,257.218L374.853,257.218C382.855,257.218 390.635,255.071 397.423,251.096Z" style="fill:#3870b2;"/></g><g transform="matrix(2.37704,0,0,2.37704,548.281,920.084)"><circle cx="219.54" cy="246.615" r="35.679" style="fill:none;stroke:#3870b2;stroke-width:27.95px;"/></g></g></g><g transform="matrix(1,0,0,1,-55.9139,0)"><g transform="matrix(3.18548,0,0,3.18548,227.645,719.305)"><path d="M434.468,252.101C442.036,263.173 446.272,275.312 446.272,300C446.272,342.182 412.077,376.377 369.895,376.377L265.435,376.377C258.047,376.377 252.057,370.388 252.057,363L252.057,273.681L278.812,273.681C278.812,273.681 278.812,349.623 278.812,349.623L369.895,349.623C397.301,349.623 419.518,327.406 419.518,300C419.518,286.575 417.908,278.41 414.759,271.784C403.052,279.671 389.174,283.973 374.853,283.973L328.481,283.973C321.093,283.973 315.104,277.984 315.104,270.596L315.104,226.978C315.104,219.59 321.093,213.6 328.481,213.6L364.895,213.6C383.392,213.6 401.239,219.898 415.571,231.305C418.148,225.804 419.518,219.651 419.518,212.554C419.518,201.888 413.813,184.418 403.659,174.263C393.504,164.109 379.732,158.404 365.371,158.404C365.371,158.404 278.812,158.404 278.812,158.404L278.812,220.432L252.057,220.432L252.057,145.027C252.057,137.639 258.047,131.65 265.435,131.65L365.371,131.65C386.827,131.65 407.405,140.173 422.577,155.345C437.748,170.517 446.272,196.619 446.272,212.554C446.272,228.198 442.11,240.972 434.468,252.101ZM397.423,251.096C388.07,244.162 376.679,240.355 364.895,240.355C364.895,240.355 341.859,240.355 341.859,240.355C341.859,240.355 341.859,257.218 341.859,257.218L374.853,257.218C382.855,257.218 390.635,255.071 397.423,251.096Z" style="fill:#073042;"/></g><g transform="matrix(2.37704,0,0,2.37704,554.379,920.084)"><circle cx="219.54" cy="246.615" r="35.679" style="fill:none;stroke:#073042;stroke-width:27.95px;"/></g></g></g><path d="M1783.52,1174.09L1729.39,1174.09C1725.81,1174.09 1722.88,1177.02 1722.88,1180.61L1721.56,2029.98C1721.56,2033.57 1724.49,2036.5 1728.08,2036.5L1783.52,2036.81C1848.34,2036.81 1901.37,1983.78 1901.37,1918.97L1901.37,1056.11C1901.37,1120.93 1848.34,1174.08 1783.52,1174.08L1783.52,1174.09Z" style="fill:#073042;fill-rule:nonzero;"/></g></g></g></svg>